<?xml version="1.0" encoding="utf-8"?>
<!-- Generator: Adobe Illustrator 27.0.0, SVG Export Plug-In . SVG Version: 6.00 Build 0)  -->
<svg version="1.1" id="logo" xmlns="http://www.w3.org/2000/svg" xmlns:xlink="http://www.w3.org/1999/xlink" x="0px" y="0px"
	 viewBox="294 777 1537.2 567" xml:space="preserve">
<style type="text/css">
	.st0 {
        fill: #141414;
        stroke: #FFFFFF; /* Outline color */
        stroke-width: 2; /* Outline width */
    }
    .st1 {
        fill: #C2C1C1;
        stroke: #FFFFFF; /* Outline color */
        stroke-width: 2; /* Outline width */
    }
    .st2 {
        fill: #C21A1B;
        stroke: #FFFFFF; /* Outline color */
        stroke-width: 2; /* Outline width */
    }
</style>
<g>
	<path class="st0" d="M665.4,964.9L665.4,964.9c-1.5-1.5-3.3-2.7-5.2-3.5s-4.1-1.3-6.3-1.3c-4.4,0-8.5,1.8-11.4,4.8l0,0
		c-1.1,1.1-2.1,2.4-2.8,3.8H499l6.3,15.3h134.3c0.7,1.4,1.7,2.7,2.8,3.8l0,0c1.5,1.5,3.2,2.7,5.1,3.5s4.1,1.3,6.3,1.3
		c4.5,0,8.5-1.8,11.5-4.8l0,0c2.9-3,4.7-7,4.7-11.5C670.1,971.9,668.3,967.8,665.4,964.9z M658.3,980.7L658.3,980.7
		c-1.1,1.1-2.6,1.8-4.4,1.8c-1.7,0-3.2-0.7-4.3-1.8l0,0c-1.1-1.1-1.8-2.6-1.8-4.3v-0.2c0-1.7,0.7-3.2,1.8-4.3l0,0
		c1.1-1.1,2.6-1.8,4.3-1.8s3.3,0.7,4.4,1.8l0,0c1.1,1.1,1.8,2.6,1.8,4.3C660.1,978,659.4,979.6,658.3,980.7z"/>
	<path class="st0" d="M638.4,892.7c-0.8-1.9-2-3.7-3.5-5.2c-3-2.9-7-4.8-11.5-4.8c-1.6,0-3.2,0.2-4.7,0.7l-36.3-36.3l-2.2-2.2h-91.6
		l6.3,15.3H574l34.1,34.1c-0.5,1.5-0.7,3.1-0.7,4.7c0,2.2,0.4,4.4,1.3,6.3c0.8,1.9,2,3.7,3.5,5.2c3,3,7,4.8,11.5,4.8
		c2.2,0,4.4-0.4,6.3-1.3c1.9-0.8,3.7-2,5.2-3.5c3-3,4.8-7,4.8-11.5C639.7,896.7,639.2,894.6,638.4,892.7z M627.8,903.3
		c-1.1,1.1-2.6,1.8-4.4,1.8c-1.7,0-3.3-0.7-4.4-1.8c-1.1-1.1-1.8-2.7-1.8-4.4s0.7-3.2,1.7-4.3l0.1-0.1l0.1-0.1
		c1.1-1.1,2.6-1.7,4.3-1.7s3.2,0.7,4.4,1.8c1.1,1.1,1.8,2.6,1.8,4.4C629.6,900.6,629,902.2,627.8,903.3z"/>
	<path class="st0" d="M483.9,1168.2h37.8c0.7-1.4,1.7-2.7,2.8-3.8l0,0c1.5-1.5,3.2-2.7,5.1-3.5s4.1-1.3,6.3-1.3
		c4.5,0,8.5,1.8,11.5,4.8l0,0c2.9,3,4.7,7,4.7,11.5s-1.8,8.5-4.7,11.4l0,0c-1.5,1.5-3.2,2.6-5.2,3.5c-1.9,0.8-4.1,1.3-6.3,1.3
		c-4.4,0-8.5-1.8-11.4-4.8l0,0c-1.1-1.1-2.1-2.4-2.8-3.8h-45.2C478.9,1178.4,481.4,1173.3,483.9,1168.2z M529.8,1176
		c0,1.7,0.7,3.2,1.8,4.2l0,0c1.1,1.1,2.6,1.8,4.3,1.8s3.3-0.7,4.4-1.8l0,0c1.1-1.1,1.8-2.6,1.8-4.3c0-1.7-0.7-3.3-1.8-4.4l0,0
		c-1.1-1.1-2.6-1.8-4.4-1.8c-1.7,0-3.2,0.7-4.3,1.8l0,0c-1.1,1.1-1.8,2.6-1.8,4.2V1176z"/>
	<path class="st0" d="M482.8,1092.1c2.5,5.1,4.9,10.2,7.4,15.3H565l2.2-2.2l36.3-36.3c1.5,0.5,3.1,0.7,4.7,0.7
		c4.5,0,8.5-1.8,11.5-4.8c1.5-1.5,2.7-3.2,3.5-5.2c0.8-1.9,1.3-4.1,1.3-6.3c0-4.5-1.8-8.5-4.8-11.5c-1.5-1.5-3.2-2.7-5.2-3.5
		c-1.9-0.8-4.1-1.3-6.3-1.3c-4.5,0-8.5,1.8-11.5,4.8c-1.5,1.5-2.7,3.2-3.5,5.2c-0.8,1.9-1.3,4.1-1.3,6.3c0,1.6,0.2,3.2,0.7,4.7
		l-34.1,34.1L482.8,1092.1L482.8,1092.1z M603.9,1049c1.1-1.1,2.7-1.8,4.4-1.8s3.2,0.7,4.4,1.8c1.1,1.1,1.8,2.6,1.8,4.4
		c0,1.7-0.7,3.2-1.8,4.4c-1.1,1.1-2.6,1.8-4.4,1.8c-1.7,0-3.2-0.7-4.3-1.7l-0.1-0.1c-1.1-1.1-1.7-2.6-1.7-4.3
		C602.1,1051.6,602.8,1050,603.9,1049z"/>
	<g>
		<polygon class="st0" points="412.7,845.1 377.6,845.1 270.5,951 479,1305 341.9,915.9 		"/>
		<polygon class="st1" points="412.7,845.1 377.6,915.9 479,1305 341.9,915.9 		"/>
		<polygon class="st2" points="479,795 428.9,845.1 457.4,873.6 426.1,1050.8 479,1228.1 532,1050.8 500.5,873.6 529.2,845.1 		"/>
	</g>
</g>
<g>
	<path class="st0" d="M1257.1,1071.5c-4.7,0-9.3-0.1-14,0c-2.2,0-3.4-0.6-2.1-2.8c6.9-11.8,7.3-25.1,9.2-38.1
		c1.6-11.2,2.8-22.5,4.5-33.7c0.6-4.1-0.8-5-4.5-4.4c-7.8,1.2-15.2,3.5-22.4,6.7c-4.7,2.1-5.2,1.7-5.1-3.2
		c0.2-5.8,0.4-11.7,0.7-17.5c0.5-9.3,5.4-15.6,14.6-17.8c5.8-1.4,11.8-2.4,17.7-3.1c3-0.4,4.4-1.6,4.8-4.6
		c1.5-11.4,3.2-22.8,4.7-34.1c0.3-1.8,0.6-4-2.1-4.2c-2.5-0.1-5.6-1.1-6.6,2.6c-1.4,5.5-2.8,11-4.3,16.4c-2.6,9.5-7.3,12.5-17,10.7
		c-12.5-2.2-12.6-2.2-9.5-14.6c5.8-23.3,11.6-46.5,17.4-69.8c2.3-9.3,14.1-13.8,22.2-8.7c2,1.2,1.2,2.9,0.8,4.4
		c-1.6,6.6-3.2,13.3-4.8,19.9c-0.5,2.2-2.4,5.3,1.9,5.6c3.3,0.3,7.1,1.2,7.6-4.4c0.7-7.6,2-15.2,3.1-22.8
		c1.4-9.4,5.9-13.3,15.5-13.4c8.5-0.1,17,0,25.5-0.1c3.3,0,4.4,0.8,2.4,4c-6.2,10-6.8,21.4-8.4,32.6c-0.4,2.8,1.1,3.6,3.6,3.2
		c2.8-0.5,5.6-0.9,8.3-1.7c2.6-0.7,3.9-0.6,3.4,2.6c-1.4,8-2.5,16.1-4.2,24.1c-1.1,5.3-5.4,8.7-11.3,8.8c-3.9,0-5.1,1.5-5.5,5.2
		c-0.9,8.6-2.2,17.2-3.5,25.7c-0.6,3.9,0.6,5,4.3,3.2c2.6-1.2,5.3-2.1,7.8-3.3c2.2-1,3.3-0.3,3.1,2c-0.5,8.1-0.4,16.4-1.8,24.4
		c-1.3,7.2-7.1,11.1-14,12.8c-4,0.9-5.3,2.8-5.8,6.7c-2.8,21.6-5.8,43.2-8.9,64.8c-1.7,11.9-5.8,15.5-17.8,15.5
		C1263.4,1071.4,1260.2,1071.4,1257.1,1071.5C1257.1,1071.4,1257.1,1071.4,1257.1,1071.5z"/>
	<path class="st0" d="M807.9,930.8c30.2,0,60.3-0.1,90.5,0c6.2,0,12.3-0.9,18.2-2.7c3.2-1,4.4-0.1,3.8,3.2
		c-1.3,6.5-2.3,13.1-3.9,19.6c-1.9,7.9-8,12.5-16.4,12.6c-26.8,0.1-53.6,0.1-80.5-0.1c-4.2,0-5.8,1.2-6.3,5.4
		c-3.6,28.9-7.5,57.8-11.4,86.7c-1.7,12.9-6,16.4-19.2,16.5c-8.2,0-16.3,0-24.5,0c-3.1,0-4.3-0.7-2.4-4c3.3-5.7,4.6-12.1,5.5-18.6
		c3.6-26.7,7.2-53.5,11-80.2c0.6-4.4-0.2-5.9-4.9-5.8c-17.7,0.2-35.3,0.1-53,0.1c-6.2,0-12.2,1.4-18.2,2.7c-3.2,0.7-4.9,0.2-3.8-3.7
		c1.8-6.7,3.3-13.6,5.1-20.3c2.2-7.7,8-11.8,16.5-11.8c31.3,0,62.6,0,94,0C807.9,930.6,807.9,930.7,807.9,930.8z"/>
	<path class="st0" d="M1098,910.5c17.2,0,34.3,0.1,51.5-0.1c4,0,5.1,0.8,3.1,4.8c-5.8,11.5-7.3,24.2-9.6,36.6
		c-4.7,24.9-9.2,49.8-13.8,74.7c-1.2,6.3-1.1,6.3,5,6.3c9.8,0.1,9.9,0.1,11.4-9.8c0.9-5.6,1.6-11.2,2.6-16.8
		c1.4-7.5,6.2-11.7,13.7-12.2c4.2-0.2,8.3-0.2,12.5-0.1c1.6,0,3.7,0.1,2.2,2.8c-5.6,10.2-6.2,21.7-7.9,32.8c-1.2,7.7-2,15.5-3,23.3
		c-1.4,10.1-6.5,14.7-16.6,14.7c-22.2,0-44.3,0-66.5,0c-5.6,0-5.8-0.2-3.2-5c6.8-12.6,8.7-26.5,11.1-40.3
		c4.3-23.9,8.4-47.9,12.9-71.8c0.8-4.2-0.3-5.1-4.4-5.1c-22,0.2-44,0.1-66,0.1c-6.1,0-6.2-0.2-4.6-5.8c1.7-6.3,3.5-12.5,5.3-18.7
		c2.1-7.2,6.4-10.4,13.9-10.5C1064.4,910.4,1081.2,910.5,1098,910.5z"/>
	<path class="st0" d="M1336.9,991.1c-6.8-1-11.9,0.7-17,2.1c-3.7,1-5.4,0.8-4.5-3.7c1.2-5.7,1.9-11.5,3.1-17.2
		c1.8-8.8,8-13.9,16.9-13.9c15.5-0.1,31-0.1,46.5,0c3.4,0,5.9-0.4,7.5-4.1c1.7-3.9,5.3-5.8,9.7-5.8c9.7,0,19.3,0,29,0
		c3.4,0,4.3,1,2.3,4c-0.9,1.5-2.6,3.3-1.4,4.9c1.1,1.5,3.4,0.9,5.2,0.6c3.4-0.6,6.9-1.2,10.3-2.1c2.6-0.6,3.9-0.2,3.3,2.9
		c-1.3,6.4-2.3,12.8-3.8,19.1c-1.9,7.9-7.9,12.5-16.5,12.5c-4.4,0-5.6,1.6-6.1,5.7c-2.5,19.8-5.3,39.6-8.1,59.4
		c-1.6,11.3-4.8,14.1-16.4,14.3c-13.2,0.3-26.3-0.5-39.5,0.6c-5.2,0.4-10.3,1-15.2,2.6c-2.9,1-3.7,0-3.3-2.7
		c1.3-7.7,2.3-15.5,3.9-23.1c1.2-5.8,5.5-9,12.1-9.2c5.7-0.2,11.3-0.2,17,0c3,0.1,4.5-0.7,5-4c1.7-13,3.6-26,5.5-39.1
		c0.3-2,0.7-4.2-2.5-4.2c-11.2,0-22.5,0-34.8,0c6.6,7.1,11.5,14,16.8,20.5c2.4,3,2.6,5-1,7.1c-3.7,2.2-7.1,4.9-10.8,7.2
		c-6.2,3.8-12.4,2.8-16.8-3c-3.8-5-7.2-10.4-10.9-15.5c-1.8-2.5-1.1-4.1,1.2-5.7C1327.8,998.1,1331.8,994.9,1336.9,991.1z"/>
	<path class="st0" d="M1024.6,886.7c2,0,5.1,0,8.3,0c6,0,6.3,0.3,4.7,6.3c-4.3,16.1-8.6,32.2-12.9,48.2
		c-7.3,27.2-14.5,54.4-21.8,81.6c-1.5,5.7-1.3,6,4.7,4.8c13.4-2.7,26.8-5.3,40.1-8.1c3.6-0.8,4.8,0.2,4.9,3.8c0.2,6,0.9,12,1.1,17.9
		c0.3,7.8-3.4,12.9-10.9,14.5c-22.6,4.8-45.3,9.4-68,13.8c-7.1,1.4-11.8-1.5-15.2-7.8c-3.7-6.9-4.6-13.6-2.5-21.6
		c12.9-46.5,25.3-93.2,37.8-139.8c2.5-9.1,5.9-12.1,15.3-12.8C1014.8,887.1,1019.1,887,1024.6,886.7z"/>
	<path class="st2" d="M1363.2,1244.4c0.1-3.4-1.4-4.3-4.5-4.3c-7.5,0-15-0.1-22.5,0c-6.4,0.1-11.8-2.6-18.7-5.8
		c10.5-4.6,19.6-8.7,28.8-12.4c3.9-1.6,5.2-3.8,5.1-7.9c-0.3-9.2,0-18.3-0.1-27.5c0-2.9,0.5-4.7,4-4.8c7.8-0.3,7.8-0.5,7.8-8.3
		c0-0.7,0-1.3,0-2c-0.1-7.6,1.2-8-7.3-7.8c-3.1,0.1-4.8-0.9-4.5-4.2c0.4-3.4-1.5-4.3-4.5-4.2c-5,0.1-10,0.1-15,0
		c-2.9-0.1-4.6,0.9-4.2,3.9c0.4,3.6-1.4,4.5-4.7,4.4c-21.1-0.1-42.3-0.1-63.4,0c-2.8,0-4.6-0.5-4.3-3.8c0.3-2.7-1.3-3.5-3.7-3.4
		c-5.2,0.1-10.3,0.1-15.5,0c-3-0.1-4.9,0.5-4.6,4.1c0.2,2.3-1.1,3-3.3,3.2c-8.4,0.6-8.4,0.7-8.3,9.2c0,1,0.1,2,0,3
		c-0.6,4.4,0.9,6.7,5.7,6c4.6-0.7,5.7,1.6,5.5,5.8c-0.2,8.8,0.1,17.6-0.1,26.5c-0.1,3.7,1.2,5.8,4.4,7.5c6.6,3.5,13.1,7.3,19.6,11
		c0.9,0.5,2.4,0.9,2.4,2.3c0.1,1.8-1.7,1.8-2.8,2.4c-6.9,3.4-14.2,3.8-21.8,3.9c-15.3,0-12.5-3-12.8,13.8c0,0.2,0,0.3,0,0.5
		c-0.1,2.3,1.2,3.2,3.4,3.2c19.1-0.2,38.8,2.9,56.1-9c1.5-1,3.3-1.5,4.9-2.5c3-1.8,5.9-1.8,8.9-0.2c16.3,8.7,33.6,12.4,52,10.5
		c1.8-0.2,3.7,0,5.5,0C1365.7,1257,1362.8,1260.2,1363.2,1244.4z M1290.4,1223c-2.2,0.9-4.1,0.8-6.2-0.4c-8.5-4.6-17-9.1-25.5-13.6
		c-2.3-1.2-3.5-2.7-3.4-5.4c0.2-5.8,0.2-11.7,0-17.5c-0.1-3.3,1.4-4.3,4.5-4.3c10.7,0.1,21.3,0,32,0c10.3,0,20.7,0.1,31,0
		c3.6-0.1,5.2,1.1,5,4.9c-0.2,5.5-0.2,11,0,16.5c0.1,2.7-0.7,4.2-3.3,5.3C1312.9,1213.2,1301.7,1218.1,1290.4,1223z"/>
	<path class="st2" d="M1448.1,1257.6c-22,0-44-0.1-66,0.1c-4.2,0-5.4-1.3-5.4-5.4c-0.1-13.7-0.3-13.7,13.2-13.7
		c14.2,0,28.3-0.1,42.5,0.1c4,0.1,5.4-1.3,5.1-5.2c-0.3-4.1-0.3-8.3,0-12.5c0.2-3.7-1.2-4.9-4.9-4.9c-16.2,0.2-32.3-0.1-48.5,0.2
		c-4.4,0.1-5.8-1.2-5.7-5.6c0.1-12.9,0-12.9,13-12.9c13.5,0,27-0.2,40.5,0.1c4.5,0.1,5.9-1.4,5.6-5.7c-0.3-4.5-0.3-9,0-13.5
		c0.3-4.1-1.4-5.1-5.2-5c-15.8,0.2-31.6-0.1-47.5,0.2c-4.2,0.1-5.4-1.2-5.4-5.4c0.1-12.6-0.1-12.6,12.7-12.6c40,0,80,0,119.9,0
		c6.5,0,6.5,0,6.6,6.7c0.1,11.2,0.1,11.2-10.9,11.2c-14.3,0-28.7,0.1-43-0.1c-3.5,0-4.7,1.1-4.6,4.6c0.2,4.8,0.3,9.7,0,14.5
		c-0.2,3.9,1.1,5.2,5.1,5.1c15.7-0.2,31.3,0.1,47-0.2c5-0.1,6.7,1.4,6.5,6.5c-0.4,14,1.6,11.9-11.9,12c-13.8,0.1-27.7,0.1-41.5,0
		c-3.8,0-5.5,1-5.2,5.1c0.3,4.3,0.3,8.7,0,13c-0.2,3.9,1.1,5.2,5.1,5.2c16.2-0.2,32.3,0.1,48.5-0.2c4.7-0.1,6.3,1.1,6.2,6
		c-0.3,12.4-0.1,12.4-12.4,12.4C1487.7,1257.6,1467.9,1257.6,1448.1,1257.6z"/>
	<path class="st0" d="M1075.5,884.4c-28.5,0-57,0.1-85.5,0c-7.2,0-14.3,0.4-21.4,1.8c-3.7,0.7-5.5,0.4-4.2-4.1
		c1.8-6.4,3-13,4.6-19.4c2.2-8.9,7.3-12.9,16.4-12.9c59.7,0.1,119.3-0.5,179,0.8c7.2,0.2,14.3-0.1,21.1-2.8c2.9-1.2,4.8-1.1,4,3.1
		c-1.3,6.7-2.2,13.5-3.6,20.2c-1.9,9.2-7.1,13.4-16.5,13.4C1138.1,884.4,1106.8,884.4,1075.5,884.4z"/>
	<path class="st2" d="M1790.9,1174.4c-15.8,0.2-31.7,0.1-47.5,0.1s-31.7,0.1-47.5-0.1c-3.7,0-4.9,1-4.9,4.8c0.2,22,0.2,44,0,66
		c0,3.9,1.2,5.2,5.2,5.2c28-0.1,56,0,84-0.1c10.6,0,15-4.3,15.1-14.8c0.1-18.8,0-37.6,0.1-56.5
		C1795.5,1175.5,1794.5,1174.4,1790.9,1174.4z M1773.1,1226.8c0,3.4-1.1,4.8-4.7,4.8c-16.1-0.1-32.3-0.1-48.4,0
		c-3.4,0-4.8-1.1-4.8-4.6c0.1-9.3,0.2-18.6,0-27.9c-0.1-3.9,1.7-4.8,5.2-4.7c8,0.2,16,0,24,0.1c7.8,0,15.6,0.2,23.5-0.1
		c3.8-0.1,5.4,1,5.3,5C1773,1208.5,1773,1217.7,1773.1,1226.8z"/>
	<path class="st2" d="M1759.1,1115.3c21.7,0,43.3,0.1,65-0.1c4.2,0,5.4,1.3,5.3,5.4c-0.1,38,0,75.9-0.1,113.9c0,16-6.1,21.9-22.3,22
		c-10.5,0.1-10.5,0.1-10.6-10.5c-0.1-4.3-1.2-9.1,6-8.4c2.9,0.3,3-2.6,3-4.8c0-9.3,0-18.7,0-28c0-21.1,0-42.3,0-63.4
		c0-6.7,0-6.7-6.6-6.7c-34.7,0-69.3-0.1-104,0.1c-4.7,0-6.3-1.3-5.9-5.9c0.3-2.8,0.3-5.7,0-8.5c-0.4-4.1,1.2-5.1,5.1-5.1
		C1715.8,1115.4,1737.5,1115.3,1759.1,1115.3z"/>
	<path class="st2" d="M1045.7,1118.9c-0.1,41.8-0.1,83.6-0.1,125.4c0,10.3-4.3,14.7-14.4,15.1c-6.5,0.2-13,0-19.5,0.1
		c-3.1,0.1-3.9-1.3-4-4.2c-0.5-13.3-0.6-13.4,12.8-13.8c3.5-0.1,4.6-1.5,4.6-4.8c0-32.8,0-65.6,0.1-98.4c0-3.3-1.4-4.3-4.5-4.3
		c-28.3,0.1-56.6,0-85,0c-4.2,0-6.4,4.5-4.4,8.4c0.7,1.4,1.6,0.6,2.4,0.6c15.2-0.9,15.2-0.9,18.8,13.8c0.5,2.2,0.9,4.6,1.3,6.8
		c2.3,1.8,2.3-0.4,2.7-1.7c1.6-4.9,3.2-9.8,4.5-14.8c0.7-2.8,2.2-3.7,5-3.6c7.8,0.1,15.7,0.2,23.5,0c3.1-0.1,4.5,1.1,5.2,4
		c1.4,5.6,3.1,11.1,5,17.8c3-6.1,4.1-11.7,5.6-17c1-3.5,2.5-5.2,6.2-4.8c2.5,0.2,5,0.2,7.5,0c4.1-0.3,4.4,1.5,3.3,4.8
		c-4.7,14.4-9.2,28.9-13.9,43.2c-1.2,3.5-1.2,6.6,0,10.1c3.8,10.7,7.2,21.5,10.8,32.2c1.1,3.3,0.7,4.7-3.3,4.7
		c-11.5,0.1-11.5,0.2-16.7-10.5c-2.4,3.1-2.9,6.7-3.8,10c-0.9,3.8-2.7,5.5-6.9,5.4c-12.3-0.4-11.2,1.5-7.9-10.5
		c3.2-11.7,6.6-23.4,9.9-35.1c0.4-1.5,0.6-2.9,0.2-4.4c-4-14.4-7.9-28.9-11.9-43.7c-2,1.2-2.2,3.1-2.6,4.7
		c-4.2,13.2-8.2,26.4-12.4,39.6c-1,3.1-1,6.1-0.1,9.2c3.4,11.5,6.5,23.1,9.9,34.6c1.2,4,0.8,5.7-4,5.6c-11.6-0.1-11.6,0.1-14.5-11.2
		c-0.2-0.8-0.6-1.5-1.1-2.7c-2.5,2.9-3.3,6.2-4.3,9.2c-1.1,3.4-2.8,4.7-6.5,4.6c-11-0.1-11,0.1-8-10.2c3.1-10.7,6-21.5,9.5-32.1
		c1.5-4.8-1.6-8.7-1.3-13.2c-4-12.2-6.4-24.8-9.8-37.1c-0.5-1.8-0.9-3.5-1.6-6c-1.4,3.1-1,5.6-1,8.1c0,33-0.1,65.9,0.1,98.9
		c0,4.8-1.7,6.2-6.1,5.7c-2.6-0.3-5.4-0.3-8,0c-4.5,0.5-5.6-1.4-5.6-5.7c0.2-28.6,0.1-57.3,0.1-85.9c0-15.7,0.1-31.3-0.1-47
		c0-3.9,1.2-5.2,5.1-5.2c41.3,0.1,82.6,0.1,123.9,0C1044.2,1113.8,1045.7,1114.8,1045.7,1118.9z"/>
	<path class="st0" d="M1423.2,840.7c-2.8,5.4-4.9,10.1-6,15.2c-0.7,3.2,0.2,4.8,3.7,4.7c11-0.3,22,1.1,32.8-2.3
		c2.8-0.9,3.3,0.4,2.8,2.7c-1.3,6.7-2.3,13.5-4.1,20.1c-1.6,5.9-7.1,9.6-13.7,9.7c-7.2,0.1-14.3,0.2-21.5,0
		c-3.4-0.1-5.4,0.5-5.9,4.7c-0.8,6.6-5.6,10.6-12.3,10.8c-9.3,0.3-18.7,0.1-28,0.1c-3.5,0-4.4-1-2.6-4.4c5.9-11.1,5.8-11-6.4-11.2
		c-7.7-0.1-15.3,0.2-22.7,2.8c-3.5,1.2-4.2-0.2-3.6-3.3c1.1-6.1,2-12.2,3.4-18.2c1.6-7.2,6.9-11.4,14.3-11.6c6.7-0.1,13.3-0.2,20,0
		c3.2,0.1,4.6-1.2,4.9-4.2c0.2-2.5,0.5-5,1.1-7.4c1.2-4.6,4.3-8,9-8.1C1399.8,840.4,1411.1,840.7,1423.2,840.7z"/>
	<path class="st2" d="M1603.1,1256c-15.3,0-30.7-0.1-46,0.1c-4.3,0.1-5.5-1.4-5.9-5.7c-1.4-14.5,1.9-27.2,10.8-39.1
		c8-10.8,14.4-22.7,21.4-34.3c1.8-3.1,3.9-4.6,7.6-4.4c5.8,0.2,11.7,0,17.5,0c5,0,5.3,0.6,2.7,5.1c-10,16.9-20,33.8-30,50.7
		c-0.9,1.5-2.7,3.1-1.9,4.9c0.9,2,3.3,1,5,1.1c17.8,0.1,35.7-0.1,53.5,0.1c4.9,0.1,6.4-1.5,6.1-6.3c-0.4-6,0-12-0.1-18
		c-0.1-3,1.2-4.2,4.2-4.1c5.2,0.1,10.3,0.1,15.5,0c2.8,0,3.7,1.2,3.7,3.9c-0.1,10.3,0.1,20.7-0.1,31c-0.2,9.1-5.1,14.2-14.9,14.7
		c-12.6,0.6-25.3,0.3-38,0.4C1610.4,1256,1606.7,1256,1603.1,1256z"/>
	<path class="st2" d="M1180.7,1120.8c6.3,0,12.7,0.1,19,0c3.3,0,5.1,1.3,4.7,4.7c0,0.3,0,0.7,0,1c1.5,9.3-1.5,16.6-9,22.6
		c-5.3,4.2-9.7,9.6-14.7,14.3c-2.6,2.5-2.1,3.9,0.3,6.4c5.1,5.2,11.4,5.1,17.7,4.6c5.1-0.4,6.7,1.5,6.5,6.5
		c-0.4,11.2,1.1,9.5-9.6,9.6c-3,0.1-6-0.3-9,0.1c-7.9,0.9-14.8-0.8-20.4-6.9c-2.6-2.8-4.9-2.2-7,0.6c-3.8,5.2-8.9,6.8-15.3,6.3
		c-6.3-0.5-12.7-0.2-19-0.1c-2.9,0.1-4.1-1-4.4-4c-1-11.6-0.7-11.9,11.1-12c3.6,0,7.2,0.7,10.4-2.2c2.8-2.5,3.3-3.9,0-6.4
		c-5.3-4-10.4-8.3-15.5-12.5c-0.8-0.6-1.9-1.2-1.7-2.3c0.3-1.6,1.9-1.1,2.9-1.1c8-0.1,16-0.1,24-0.1c1.5,0,3.1,0.3,4.1,1.5
		c3.3,3.4,5.9,2.6,8.4-1.1c1.5-2.2,3.6-4,5.2-6c0.9-1.1,2.8-2,1.9-3.6c-0.8-1.5-2.7-0.7-4.2-0.8c-4.5-0.1-9,0-13.5-0.1
		c-2.4,0-4.7,0.1-6.4,2.1c-1.2,1.4-2.9,1.6-4.6,1.6c-5.8,0-11.7-0.1-17.5,0c-3.3,0.1-4.6-1.3-4.3-4.5c0.1-1.2,0-2.3,0-3.5
		c0-6.8,0-7,6.7-7c3.1,0,4.9-1.3,5.4-4c1.8-9.3,7.3-12.6,16.4-10.9c2.1,0.4,4.3,0,6.5,0.1c2.6,0,4.5,0.6,2.8,3.8
		c-1.5,2.7,0.1,3.1,2.3,3.1C1167.7,1120.8,1174.2,1120.8,1180.7,1120.8L1180.7,1120.8z"/>
	<path class="st0" d="M1389.6,911.5c13.3,0,26.6,0,40,0c8,0,16,0,23.7-2.5c2.8-0.9,3.8,0.1,3.3,2.9c-1.5,7.2-2.7,14.4-4.7,21.5
		c-1.8,6.5-8.1,10.4-15.9,10.4c-29.5,0-58.9,0.1-88.4,0c-8.4,0-16.7,0.5-24.6,3.3c-3.9,1.4-3.9-0.5-3.4-3.3
		c1.2-6.4,2.2-12.8,3.6-19.1c1.8-8.2,7.6-12.9,16-12.9C1355.9,911.5,1372.8,911.5,1389.6,911.5L1389.6,911.5z"/>
	<path class="st2" d="M1203.9,1202c0.1-4.3-1.6-5.5-5.6-5.4c-11.8,0.2-23.6,0.1-35.4,0.1s-23.6,0.1-35.5,0c-3.7-0.1-5.5,1-5.5,5
		c0.1,17,0,33.9-0.1,50.9c0,3.7,1.6,4.9,5.1,4.8c21.1-0.1,42.3,0,63.4-0.1c9.5,0,13.4-4,13.4-13.4
		C1203.9,1230,1203.7,1216,1203.9,1202z M1180.6,1235.6c0,2.9-1.6,4-4.5,4c-8.6-0.1-17.3-0.1-25.9,0c-3.5,0-5.2-1.5-5.1-5.1
		c0.1-5.1,0.1-10.3,0-15.4c-0.1-3.5,1.6-4.7,4.9-4.7c4.3,0.1,8.6,0,12.9,0s8.6,0.1,12.9,0c3.2-0.1,4.7,1.3,4.8,4.3
		C1180.7,1224.3,1180.7,1230,1180.6,1235.6z"/>
	<path class="st2" d="M1090,1223.8c-7.3,0-14.7-0.1-22,0.1c-3.4,0.1-4.5-1.2-4.7-4.6c-0.5-7.6,1.1-14.4,5.7-20.6
		c3.2-4.3,5.6-9,8.4-13.6c1.7-2.7,1.5-4.3-2.2-4.2c-2.5,0.1-5-0.2-7.5,0c-4.1,0.4-5.5-1.5-5-5.2c0-0.2,0-0.3,0-0.5
		c-1.2-12.8,1-24.6,8.1-35.6c4.2-6.5,7.3-13.8,10.8-20.8c1.4-2.8,3.2-4.4,6.6-4.2c5.7,0.2,11.3,0.2,17,0c4.3-0.1,5,1.2,2.9,4.9
		c-7,12.3-13.8,24.6-20.6,37.1c-0.8,1.4-3.5,3.3-0.8,4.9c2.2,1.3,3.5-1.1,4.5-2.8c0.8-1.5,1.8-2.8,2.4-4.4c1.3-3.3,3.7-4.3,7.1-4.1
		c5,0.2,10,0,15,0.1c5.3,0,5.7,0.7,3,5.3c-8.6,15.2-17.2,30.4-25.8,45.6c-2.6,4.6-2.6,4.7,2.7,4.7c5.7,0,11.3,0.2,17,0
		c3.7-0.1,5,1.4,4.9,5c-0.3,15.6,1.7,12.9-12.8,13.1C1099.6,1223.9,1094.8,1223.8,1090,1223.8z"/>
	<path class="st0" d="M799.1,926.4c-5.5,0-11-0.1-16.5,0c-3.1,0.1-4.2-1.2-3.7-4.2c3.1-22.6,6.1-45.1,9.4-67.7
		c1.1-7.6,6.2-12.2,13.9-12.6c9.8-0.4,19.6-0.2,29.4-0.1c1.8,0,4.2,0,2.5,3c-6.3,10.7-6.5,22.9-8.3,34.7
		c-2.1,13.8-3.8,27.6-5.3,41.5c-0.5,4.3-2.3,5.7-6.4,5.5C809.1,926.2,804.1,926.4,799.1,926.4z"/>
	<path class="st2" d="M1603.4,1116.4c12.6,0,25.3,0.1,37.9-0.1c3.5,0,5.4,1.2,6.8,4.4c6.2,14,12.7,27.8,18.9,41.8
		c1.5,3.3,2.9,5.9,7.2,5.4c2.1-0.2,3.3,1,3.3,3.4c-0.1,5-0.1,10,0,15c0,2.6-1.1,3.6-3.6,3.5c-5.5-0.1-11,0.1-16.5-0.1
		c-4.3-0.1-6.9-2.6-8.7-6.4c-6.2-13.6-12.6-27.1-18.6-40.8c-1.6-3.7-3.8-4.7-7.6-4.7c-19.1,0.2-38.3-0.1-57.4,0.2
		c-4.7,0.1-6.2-1.5-5.8-6c0.3-3.1,0.3-6.3,0-9.5c-0.5-4.7,1.1-6.4,6-6.3C1578.1,1116.7,1590.8,1116.4,1603.4,1116.4z"/>
	<path class="st2" d="M1289.9,1137.7c-14,0-28,0.1-42-0.1c-4.1-0.1-6.1,1.2-5.4,5.4c0.8,5.2-1.5,6.8-6.5,6.4c-4-0.4-8-0.2-12-0.1
		c-3.5,0.1-5.1-1-5-4.9c0.3-7,0.2-14,0-21c-0.1-3.7,1.2-5,4.9-4.9c15.5,0.1,31,0,46.5,0c2.7,0,5.4,0.6,5.5-3.7
		c0-2.1,2.2-2.2,3.9-2.2c6.5,0,13,0,19.5,0c1.7,0,3.7-0.1,3.9,2.2c0.2,4.1,3,3.7,5.7,3.7c16,0,32,0.1,48-0.1
		c4.3-0.1,5.4,1.4,5.1,5.5c-0.5,6.3-0.6,12.6-0.6,19c0,3.6-1.1,5.1-4.9,4.9c-4.8-0.3-9.7-0.2-14.5,0c-3.4,0.2-5.2-0.9-4.6-4.5
		c0.8-4.9-1.7-5.8-6-5.7C1317.6,1137.8,1303.8,1137.7,1289.9,1137.7z"/>
	<path class="st2" d="M1449,1113.9c14.5,0,29,0.1,43.5,0c3.6,0,6.3,1,8.3,4.2c2.4,3.8,5.4,7.2,8.1,10.8c1.9,2.5,4,4.6,7.4,4.4
		c2.8-0.1,3.2,1.4,3.3,3.7c0.7,14,0.7,13.8-13.1,14.1c-6.7,0.1-12.4-1.7-15.6-7.7c-5.4-9.9-13.4-12.4-24.3-11.7
		c-15.1,1-30.3,0.3-45.4,0.2c-3.7,0-6.2,1.1-8.4,4.1c-12.2,16.3-8.5,13.9-30.3,14.2c-3.4,0-5-1-4.6-4.5c0.2-1.8,0.1-3.7,0-5.5
		c-0.2-4.8-0.9-9.5,6.6-8.8c2.5,0.2,4.4-2.3,5.6-4.5c5.8-11.2,14.9-14.3,27.2-13.1C1427.6,1114.7,1438.4,1113.8,1449,1113.9
		L1449,1113.9z"/>
	<path class="st0" d="M866.9,1054.8c-5.2-0.2-9.5-2.2-12.1-6.8c-9.3-16.3-18.5-32.7-27.7-49.1c-1.2-2.2-0.9-3.7,1.2-5
		c6.2-3.8,12.3-7.9,18.7-11.6c7.6-4.3,15.4-2.6,19.9,4.9c9.4,15.9,18.2,32.1,27.3,48.2c1.3,2.3,1.1,3.9-1.3,5.4
		c-6,3.9-11.9,7.9-17.9,11.8C872.5,1054.4,869.8,1055,866.9,1054.8z"/>
	<path class="st0" d="M869.5,868.4c12.8-0.5,25.7,1.2,38.1-3c2.5-0.8,2.9,0.8,2.5,2.8c-1.4,7.5-2.5,15.1-4.2,22.5
		c-1.4,6-6.2,9-12,9.9c-4.6,0.7-9.3,0.7-13.9,0.8c-10.6,0.1-21.3,0-31.9,0c-6.5,0-13,0.3-19.2,2.6c-2.9,1.1-4.1,0.4-3.6-2.8
		c1.3-7.5,2.4-15.1,4.1-22.5c1.4-6,7.6-9.9,15.1-10.1C852.8,868.3,861.2,868.4,869.5,868.4z"/>
	<path class="st2" d="M1743.3,1164.8c-16,0-32-0.1-47.9,0.1c-4,0.1-5.1-1.3-5.1-5.2c0-13.8-0.1-13.8,13.5-13.8
		c28.6,0,57.2,0.1,85.9-0.1c4.9,0,6.7,1.2,6.6,6.4c-0.3,12.6-0.1,12.6-12.5,12.6C1770.2,1164.8,1756.7,1164.8,1743.3,1164.8z"/>
	<path class="st0" d="M1057.7,1010.7c-6.4-0.5-11.2-2.5-13.4-7.8c-4.2-10.3-7.9-20.8-12-31.1c-0.9-2.3,0.2-3.4,2-4.3
		c5.5-2.7,10.9-5.7,16.6-8c7.9-3.2,14.8-0.4,18,7.4c4,9.8,7.6,19.8,11.3,29.8c0.5,1.4,1.4,3.1-0.3,4
		C1072.5,1004.6,1065.1,1008.6,1057.7,1010.7z"/>
	<path class="st2" d="M1533.2,1179.9c0-1.2,0-2.3,0-3.5c0-7.1,0-7.2,7.1-8c2.5-0.3,3.8-1.8,5-3.6c3.3-5.2,6.7-10.3,9.9-15.5
		c1.3-2,2.7-3.1,5.2-3.1c6.8,0.1,13.6,0.1,20.4,0c3.2,0,3.9,1.1,2.3,3.9c-5.8,10.1-11.4,20.3-17.3,30.3c-4.7,7.9-12,11-21,11
		C1533.2,1191.4,1533.2,1191.5,1533.2,1179.9z"/>
	<path class="st2" d="M1090.1,1237.5c7.5,0,15,0.1,22.4-0.1c3.5-0.1,4.8,1.3,4.7,4.7c-0.4,18.9,2.9,15-14.3,15.3
		c-11.8,0.2-23.6-0.1-35.4,0.1c-3.7,0.1-4.9-1.2-4.9-4.8c-0.2-15.2-0.3-15.2,14.6-15.2C1081.4,1237.5,1085.8,1237.5,1090.1,1237.5z"
		/>
</g>
</svg>
