<?xml version="1.0" encoding="utf-8"?>
<!-- Generator: Adobe Illustrator 27.0.0, SVG Export Plug-In . SVG Version: 6.00 Build 0)  -->
<svg version="1.1" id="logo" xmlns="http://www.w3.org/2000/svg" xmlns:xlink="http://www.w3.org/1999/xlink" x="0px"
	 y="0px" viewBox="294 777 1537.2 567" xml:space="preserve">
<style type="text/css">
	.st0 {
        fill: #141414;
        stroke: #FFFFFF; /* Outline color */
        stroke-width: 2; /* Outline width */
    }
    .st1 {
        fill: #C2C1C1;
        stroke: #FFFFFF; /* Outline color */
        stroke-width: 2; /* Outline width */
    }
    .st2 {
        fill: #C21A1B;
        stroke: #FFFFFF; /* Outline color */
        stroke-width: 2; /* Outline width */
    }
</style>
<g>
	<path class="st0" d="M715.7,964.9L715.7,964.9c-1.5-1.5-3.3-2.7-5.2-3.5c-1.9-0.8-4.1-1.3-6.3-1.3c-4.5,0-8.5,1.8-11.4,4.8l0,0
		c-1.1,1.1-2.1,2.4-2.8,3.8H549.3l6.3,15.3h134.3c0.7,1.4,1.7,2.7,2.8,3.8h0c1.5,1.5,3.2,2.7,5.1,3.5s4.1,1.3,6.3,1.3
		c4.5,0,8.5-1.8,11.5-4.8h0c2.9-3,4.7-7,4.7-11.5S718.6,967.8,715.7,964.9L715.7,964.9z M708.6,980.7L708.6,980.7
		c-1.1,1.1-2.6,1.8-4.4,1.8s-3.2-0.7-4.3-1.8l0,0c-1.1-1.1-1.8-2.6-1.8-4.3v-0.2c0-1.7,0.7-3.2,1.8-4.3l0,0c1.1-1.1,2.6-1.8,4.3-1.8
		s3.3,0.7,4.3,1.8l0,0c1.1,1.1,1.8,2.6,1.8,4.3S709.7,979.6,708.6,980.7z"/>
	<path class="st0" d="M688.7,892.7c-0.8-1.9-2-3.7-3.5-5.2c-3-2.9-7-4.8-11.5-4.8c-1.6,0-3.2,0.2-4.7,0.7l-36.3-36.3l-2.2-2.2h-91.6
		l6.3,15.3h79.1l34.1,34.1c-0.5,1.5-0.7,3.1-0.7,4.7c0,2.2,0.5,4.3,1.3,6.3s2,3.7,3.5,5.2c3,3,7,4.8,11.5,4.8c2.2,0,4.3-0.5,6.3-1.3
		c2-0.8,3.7-2,5.2-3.5c3-3,4.8-7,4.8-11.5C690,896.7,689.5,894.6,688.7,892.7L688.7,892.7z M678.1,903.3c-1.1,1.1-2.7,1.8-4.3,1.8
		s-3.3-0.7-4.3-1.8c-1.1-1.1-1.8-2.7-1.8-4.3s0.7-3.2,1.7-4.3l0.1-0.1l0.1-0.1c1.1-1.1,2.6-1.7,4.3-1.7s3.2,0.7,4.3,1.8
		c1.1,1.1,1.8,2.7,1.8,4.3S679.2,902.2,678.1,903.3L678.1,903.3z"/>
	<path class="st0" d="M534.2,1168.2h37.8c0.7-1.4,1.7-2.7,2.8-3.8h0c1.5-1.5,3.2-2.7,5.1-3.5c1.9-0.8,4.1-1.3,6.3-1.3
		c4.5,0,8.5,1.8,11.5,4.8h0c2.9,2.9,4.7,7,4.7,11.4s-1.8,8.5-4.7,11.4l0,0c-1.5,1.5-3.2,2.7-5.2,3.5c-1.9,0.8-4.1,1.3-6.3,1.3
		c-4.5,0-8.5-1.8-11.4-4.8l0,0c-1.1-1.1-2.1-2.4-2.8-3.8h-45.2C529.2,1178.4,531.7,1173.3,534.2,1168.2L534.2,1168.2z M580.1,1176
		c0,1.7,0.7,3.2,1.8,4.2l0,0c1.1,1.1,2.6,1.8,4.3,1.8s3.3-0.7,4.3-1.8l0,0c1.1-1.1,1.8-2.6,1.8-4.3s-0.7-3.3-1.8-4.3l0,0
		c-1.1-1.1-2.6-1.8-4.3-1.8s-3.2,0.7-4.3,1.8l0,0c-1.1,1.1-1.8,2.6-1.8,4.2V1176L580.1,1176z"/>
	<path class="st0" d="M533.1,1092.1c2.5,5.1,4.9,10.2,7.4,15.3h74.8l2.2-2.2l36.3-36.3c1.5,0.5,3.1,0.7,4.7,0.7
		c4.5,0,8.5-1.8,11.5-4.8c1.5-1.5,2.7-3.2,3.5-5.2s1.3-4.1,1.3-6.3c0-4.5-1.8-8.5-4.8-11.5c-1.5-1.5-3.2-2.7-5.2-3.5
		c-1.9-0.8-4.1-1.3-6.3-1.3c-4.5,0-8.5,1.8-11.5,4.8c-1.5,1.5-2.7,3.2-3.5,5.2s-1.3,4.1-1.3,6.3c0,1.6,0.2,3.2,0.7,4.7l-34.1,34.1
		L533.1,1092.1L533.1,1092.1z M654.2,1049c1.1-1.1,2.7-1.8,4.3-1.8s3.2,0.7,4.3,1.8c1.1,1.1,1.8,2.7,1.8,4.3s-0.7,3.2-1.8,4.3
		c-1.1,1.1-2.7,1.8-4.3,1.8s-3.2-0.7-4.3-1.7l-0.1-0.1c-1.1-1.1-1.7-2.6-1.7-4.3S653.1,1050,654.2,1049L654.2,1049z"/>
	<g>
		<polygon class="st0" points="463,845.1 427.9,845.1 320.8,951 529.3,1305 392.2,915.9 		"/>
		<polygon class="st1" points="463,845.1 427.9,915.9 529.3,1305 392.2,915.9 		"/>
		<polygon class="st2" points="529.3,795 479.1,845.1 507.7,873.6 476.4,1050.8 529.3,1228.1 582.3,1050.8 550.8,873.6 579.5,845.1 
					"/>
	</g>
</g>
<g>
	<path class="st0" d="M840.1,906.2c4.6-4.5,9.9-8,16.1-10.4c6.2-2.4,13-3.7,20.5-3.7c7.5,0,14.4,1.4,20.8,4.2
		c6.4,2.8,12.2,7,17.3,12.5l17.1-16.1c-6.7-7.9-14.8-13.8-24.5-17.9c-9.7-4-20.3-6-32-6c-11,0-21.2,1.8-30.4,5.4
		c-9.3,3.6-17.3,8.7-24.3,15.3c-6.9,6.6-12.3,14.4-16.1,23.4c-3.8,9-5.7,18.8-5.7,29.4s1.9,20.4,5.7,29.4c3.8,9,9.1,16.8,16,23.4
		c6.9,6.6,15,11.7,24.3,15.3c9.3,3.6,19.4,5.4,30.3,5.4c11.8,0,22.6-2,32.2-6.1c9.7-4.1,17.8-10,24.5-17.8l-17.1-16.3
		c-5.2,5.7-11,10-17.3,12.8c-6.4,2.8-13.3,4.2-20.8,4.2c-7.5,0-14.3-1.2-20.5-3.7c-6.2-2.4-11.6-5.9-16.1-10.4
		c-4.6-4.5-8.1-9.8-10.6-15.9c-2.5-6.1-3.8-12.9-3.8-20.2s1.3-14.1,3.8-20.2C832,916,835.5,910.6,840.1,906.2z"/>
	<path class="st0" d="M1048.8,966c9-4,16-9.8,20.9-17.3c4.9-7.5,7.3-16.6,7.3-27c0-10.5-2.4-19.5-7.3-27.1
		c-4.9-7.6-11.9-13.5-20.9-17.5c-9-4.1-19.9-6.1-32.5-6.1h-58.8v142.8H984v-41.6h32.2c1.9,0,3.8-0.1,5.6-0.2l29.1,41.8h28.6
		l-32.8-46.8C1047.4,966.6,1048.1,966.3,1048.8,966z M1041.5,900.7c5.9,4.9,8.9,11.9,8.9,21c0,9-3,16-8.9,21
		c-5.9,5-14.7,7.5-26.4,7.5h-31v-56.9h31C1026.7,893.3,1035.5,895.8,1041.5,900.7z"/>
	<path class="st0" d="M1150.7,870.9l-64.3,142.8h27.3l14.1-33.1h71.4l14.2,33.1h27.8l-64.5-142.8H1150.7z M1136.8,959.8l26.7-62.5
		l26.8,62.5H1136.8z"/>
	<polygon class="st0" points="1348,870.9 1300,981 1252.5,870.9 1223.8,870.9 1286.2,1013.7 1312.3,1013.7 1374.6,870.9 	"/>
	<path class="st0" d="M1437.2,870.9l-64.3,142.8h27.3l14.1-33.1h71.4l14.2,33.1h27.7l-64.5-142.8H1437.2z M1423.3,959.8l26.7-62.5
		l26.8,62.5H1423.3z"/>
	<polygon class="st0" points="1520.4,893.3 1567.8,893.3 1567.8,1013.7 1594.3,1013.7 1594.3,893.3 1641.6,893.3 1641.6,870.9 
		1520.4,870.9 	"/>
	<polygon class="st0" points="1688.2,991.4 1688.2,952.1 1757.1,952.1 1757.1,930.2 1688.2,930.2 1688.2,893.1 1765.9,893.1 
		1765.9,870.9 1661.6,870.9 1661.6,1013.7 1768.8,1013.7 1768.8,991.4 	"/>
</g>
<g>
	<path class="st2" d="M916.6,1150.4c4.9-7.4,7.4-16.3,7.4-26.5c0-10.4-2.5-19.3-7.4-26.9c-4.9-7.6-11.9-13.4-20.9-17.4
		c-9-4-19.7-6-32.1-6h-62.1v135.9h38.4v-36.1h21l24.6,36.1h41.2l-29.4-42.8C905.6,1162.8,912,1157.3,916.6,1150.4z M879.2,1109.1
		c3.9,3.5,5.9,8.4,5.9,14.8c0,6.2-2,11.1-5.9,14.6c-3.9,3.5-9.9,5.2-18,5.2h-21.4v-39.8h21.4
		C869.3,1103.9,875.3,1105.6,879.2,1109.1z"/>
	<path class="st2" d="M1067.7,1090.9c-6.7-6.4-14.7-11.4-23.8-14.9c-9.1-3.5-19.2-5.2-30.2-5.2c-10.9,0-20.9,1.7-30.1,5.2
		c-9.2,3.5-17.2,8.4-24,14.9s-12.1,13.9-15.8,22.4c-3.8,8.5-5.6,17.9-5.6,28.2c0,10.2,1.9,19.6,5.6,28.2c3.8,8.5,9,16,15.8,22.4
		c6.8,6.4,14.8,11.4,24,14.9c9.2,3.5,19.2,5.2,30.1,5.2c11,0,21.1-1.7,30.2-5.2c9.1-3.5,17.1-8.4,23.8-14.8
		c6.7-6.3,12-13.8,15.8-22.4c3.8-8.6,5.7-18,5.7-28.2c0-10.2-1.9-19.6-5.7-28.2C1079.7,1104.8,1074.4,1097.4,1067.7,1090.9z
		 M1047.6,1157.4c-1.9,4.8-4.5,8.9-7.8,12.3c-3.3,3.4-7.2,6.1-11.6,7.9c-4.5,1.8-9.3,2.7-14.5,2.7c-5.2,0-10-0.9-14.5-2.7
		c-4.5-1.8-8.3-4.4-11.6-7.9c-3.3-3.4-5.9-7.5-7.8-12.3c-1.9-4.8-2.8-10.1-2.8-15.9c0-6,0.9-11.3,2.8-16c1.9-4.7,4.5-8.8,7.8-12.2
		c3.3-3.4,7.2-6,11.6-7.9c4.5-1.8,9.3-2.7,14.5-2.7c5.2,0,10,0.9,14.5,2.7c4.5,1.8,8.3,4.4,11.6,7.9c3.3,3.4,5.9,7.5,7.8,12.2
		c1.9,4.7,2.8,10.1,2.8,16C1050.4,1147.3,1049.4,1152.7,1047.6,1157.4z"/>
	<path class="st2" d="M1198.1,1147.7c0,11.6-2.3,20-6.8,25c-4.5,5-10.8,7.6-18.8,7.6c-8,0-14.3-2.5-18.9-7.6c-4.6-5-6.9-13.4-6.9-25
		v-74.2h-38.4v75.3c0,20.2,5.6,35.8,16.9,46.8c11.3,11,26.9,16.5,47,16.5c20.1,0,35.7-5.5,47-16.5c11.3-11,16.9-26.6,16.9-46.8
		v-75.3h-37.9V1147.7z"/>
	<path class="st2" d="M1304.5,1113.3c3.4-3.4,7.4-6,12.2-7.9c4.8-1.8,10.1-2.7,15.9-2.7c6.6,0,12.6,1.3,18,3.8
		c5.4,2.5,10.4,6.3,15,11.4l24.5-22.1c-6.6-8-14.9-14.2-25-18.4c-10.1-4.3-21.5-6.4-34.4-6.4c-11,0-21.1,1.7-30.4,5.1
		c-9.3,3.4-17.2,8.3-24,14.7c-6.7,6.3-12,13.8-15.7,22.4c-3.8,8.6-5.6,18.1-5.6,28.4c0,10.4,1.9,19.8,5.6,28.4
		c3.8,8.6,9,16.1,15.6,22.4c6.7,6.3,14.6,11.2,23.8,14.7c9.2,3.4,19.2,5.1,29.9,5.1c9.8,0,19.9-1.5,30.1-4.5
		c10.2-3,19.2-7.2,27-12.8v-56.3h-34v37.3c-1.4,0.6-2.7,1.2-4.1,1.7c-5.4,1.9-11,2.8-16.7,2.8c-5.7,0-10.9-0.9-15.6-2.8
		c-4.7-1.9-8.8-4.5-12.1-8c-3.4-3.4-6-7.5-7.9-12.3c-1.9-4.8-2.8-10-2.8-15.7c0-6,0.9-11.3,2.8-16
		C1298.5,1120.8,1301.1,1116.7,1304.5,1113.3z"/>
	<polygon class="st2" points="1449.5,1179.8 1449.5,1154.9 1509.9,1154.9 1509.9,1126.2 1449.5,1126.2 1449.5,1103.3 1518.1,1103.3 
		1518.1,1073.6 1411.5,1073.6 1411.5,1209.5 1520.6,1209.5 1520.6,1179.8 	"/>
</g>
</svg>
