<?xml version="1.0" encoding="UTF-8"?>
<!-- Generator: Adobe Illustrator 28.0.0, SVG Export Plug-In . SVG Version: 6.00 Build 0)  -->
<svg version="1.1" id="Layer_1" xmlns="http://www.w3.org/2000/svg" xmlns:xlink="http://www.w3.org/1999/xlink" x="0px" y="0px" viewBox="0 0 128 128" style="enable-background:new 0 0 128 128;" xml:space="preserve">
<style type="text/css">
	.st0{fill-rule:evenodd;clip-rule:evenodd;fill:#F16622;}
	.st1{fill:#FFFFFF;}
</style>
<g>
	<g>
		<circle class="st0" cx="64.1" cy="64" r="64"/>
	</g>
	<g>
		<path class="st1" d="M84.2,66.8c-1.4-1.1-2.7-2.2-4.2-3.3c0,0.8,0,1.3,0,1.8c-0.3,3.7-0.6,7.3-0.9,11c0,0.5,0.1,1,0.3,1.4    c0.4,1.1,1,2.1,1.4,3.3c0.8,2.2,0.6,4.4-0.5,6.6c-0.8-1.7-1.6-3.3-2.5-5.1c-1.4,4.6-3.1,8.8-6,12.4c4.4,6.8,5.5,14.6,7,22.3    c0.1,0.6,0.1,1.3,0,1.9c0,0.3-0.2,0.7-0.5,0.9c-0.2,0.1-0.7-0.1-0.9-0.3c-0.5-0.5-1-1.1-1.5-1.7c-1.9-2.8-3.7-5.7-5.7-8.5    c-1-1.4-2.3-2.6-3.6-3.7c-1.7-1.4-3.4-1.3-5.2,0c-1.8,1.3-3.2,3.1-4.4,4.9c-1.6,2.4-3.2,4.8-4.8,7.2c-0.4,0.7-1,1.2-1.5,1.8    c-0.2,0.2-0.7,0.4-0.9,0.3c-0.3-0.2-0.5-0.6-0.5-0.9c0.1-1.6,0.2-3.3,0.5-4.9c0.6-3,1.3-6,2.1-8.9c0.9-3.2,2.5-6.1,4.4-8.8    c0.3-0.5,0.7-1,1-1.6c-2.4-2.9-4.2-6.2-5.4-9.7c-1.2-3.5-2.2-7.1-3.2-10.7c-1.2,0.7-2.7,1.4-4.3,2.3c-0.5-3.9-0.8-7.6-0.4-11.4    c0.3-3.5,1.2-6.8,3.2-9.8c0.7-1,1.6-1.9,2.4-2.9c6.6,8.4,22.3,8.2,28.8,0c0.3,1.5,0.7,2.9,0.8,4.3c0.2,1.2,0.5,2.1,1.5,2.9    c1.8,1.4,3,3.3,3.2,5.6C84.1,65.8,84.1,66.2,84.2,66.8z"/>
		<path class="st1" d="M79.4,9.3C79.2,8.5,78.6,8,77.8,8c-0.9,0-1.5,0.5-1.7,1.4c-0.1,0.7-0.1,1.5,0.1,2.1c0.5,1.7,0.8,3.5,0.7,5.3    c-0.1,3.8,0,7.6-0.1,11.4c-0.1,2.6-2,4.9-4.5,5.6c-0.5,0.2-0.8,0.1-1.2-0.4c-0.9-1-1.9-1.9-3-2.9c-0.4,0.7-0.6,1.1-0.9,1.6    c-0.6-1.6-0.7-3-0.2-4.5c0.3,0.2,0.6,0.4,0.9,0.6c-0.1-1.9-0.3-3.7-0.4-5.5c-0.8,1.7-1.5,3.5-2.1,5.3c-0.5,1.7-0.4,3.5,0.6,5    c0.6,0.8,0.5,1.5,0.2,2.3c-0.3,0.8-0.6,1.6-0.9,2.4c-0.1,0-0.3,0-0.4-0.1c-0.2-2.7-0.4-5.4-0.7-8.1c-0.1,0-0.2-0.1-0.3-0.1    c-0.8,0.5-1.6,0.9-2.4,1.4c-2.6,1.9-4.5,4.3-6.2,7c-2.2,3.5-3.3,7.5-4.5,11.4c-0.4,1.1-0.1,1.7,0.7,2.4C55,54.6,59,55.9,63.4,56    c4.8,0.1,9.2-1,13-4c1.2-1,1.6-1.9,1.1-3.5c-1.4-4.4-2.7-8.9-4.9-13.1c0.2-0.1,0.3-0.2,0.5-0.2c3.6-1.4,5.3-4,5.3-7.8    c0-3.5,0-7,0-10.5c0-1.9,0.1-3.7,0.9-5.4C79.5,10.9,79.5,10,79.4,9.3z M61,46.8c-1.7,0-3-1.4-3-3c0-1.7,1.4-3,3-3s3,1.4,3,3    C64,45.4,62.6,46.8,61,46.8z"/>
	</g>
</g>
</svg>